<?xml version="1.0" standalone="no"?>
<!DOCTYPE svg PUBLIC "-//W3C//DTD SVG 20010904//EN"
 "http://www.w3.org/TR/2001/REC-SVG-20010904/DTD/svg10.dtd">
<svg version="1.0" xmlns="http://www.w3.org/2000/svg"
 width="96.000000pt" height="96.000000pt" viewBox="0 0 96.000000 96.000000"
 preserveAspectRatio="xMidYMid meet">

<g transform="translate(0.000000,96.000000) scale(0.100000,-0.100000)"
fill="#000000" stroke="none">
<path d="M325 778 c-72 -5 -133 -12 -138 -17 -4 -4 -7 -88 -8 -187 l0 -179
-36 -98 c-28 -74 -34 -100 -25 -109 22 -22 726 -7 749 15 3 4 -6 42 -21 85
-28 74 -29 84 -30 277 0 110 -5 206 -9 213 -10 14 -274 15 -482 0z m447 -57
c3 -23 0 -31 -16 -37 -21 -6 -21 -7 2 -11 25 -5 28 -13 10 -31 -9 -9 -9 -12 0
-12 13 0 17 -132 6 -189 -6 -28 -10 -31 -43 -31 -47 0 -82 10 -75 21 3 5 1 9
-5 9 -5 0 -13 -4 -16 -10 -10 -17 -32 -11 -38 10 -3 11 -10 20 -15 20 -6 0 -8
-9 -5 -20 4 -14 0 -20 -11 -20 -9 0 -16 7 -16 15 0 8 -4 15 -10 15 -5 0 -10
-7 -10 -15 0 -13 -24 -15 -154 -15 l-154 0 -4 30 c-3 20 0 30 9 30 18 0 16 10
-4 27 -17 13 -16 14 5 8 27 -8 29 6 2 23 -26 16 -26 42 0 42 11 0 20 5 20 10
0 6 -8 10 -18 10 -14 0 -17 7 -14 45 2 25 8 42 13 39 13 -8 11 10 -3 24 -17
17 0 28 22 14 24 -15 33 -15 25 -2 -3 6 -1 10 4 10 6 0 11 -4 11 -10 0 -5 5
-10 10 -10 6 0 10 7 10 15 0 22 69 20 86 -2 13 -17 13 -17 14 2 1 19 1 19 14
3 16 -21 30 -24 23 -4 -3 8 -3 17 0 20 4 3 77 6 164 6 l157 0 4 -29z m7 -363
c5 -13 5 -24 0 -26 -15 -6 -10 -22 6 -22 8 0 15 -4 15 -10 0 -5 -4 -10 -10
-10 -18 0 -10 -18 10 -23 11 -3 20 -12 20 -21 0 -12 -11 -16 -46 -16 -27 0
-43 4 -39 10 10 16 -11 12 -25 -5 -14 -17 -136 -22 -125 -6 3 5 1 12 -4 15 -5
3 -11 -1 -15 -9 -6 -17 -36 -20 -36 -4 0 8 -5 7 -16 -2 -13 -10 -17 -10 -24 1
-7 12 -10 11 -16 -3 -5 -14 -21 -17 -105 -17 -87 0 -99 2 -99 17 0 13 -3 14
-12 5 -7 -7 -32 -12 -56 -12 -36 0 -43 3 -40 18 2 9 13 18 26 20 24 4 31 22 7
22 -8 0 -15 5 -15 10 0 6 9 10 20 10 11 0 20 5 20 10 0 6 -6 10 -14 10 -12 0
-12 5 -3 30 l11 30 279 0 278 0 8 -22z"/>
<path d="M680 710 c0 -5 5 -10 10 -10 6 0 10 5 10 10 0 6 -4 10 -10 10 -5 0
-10 -4 -10 -10z"/>
<path d="M495 575 c-58 -89 -61 -95 -46 -95 5 0 26 28 48 63 22 34 47 74 57
90 11 16 14 27 7 27 -6 0 -36 -38 -66 -85z"/>
<path d="M371 601 c-12 -16 -21 -33 -20 -38 0 -13 59 -56 67 -48 4 4 -6 17
-23 30 l-29 24 22 24 c24 25 28 37 13 37 -5 0 -19 -13 -30 -29z"/>
<path d="M580 622 c0 -5 11 -19 24 -31 l24 -23 -31 -28 c-18 -16 -28 -32 -24
-36 4 -4 24 9 44 29 l37 37 -29 30 c-28 30 -45 38 -45 22z"/>
<path d="M270 550 c0 -5 5 -10 11 -10 5 0 7 5 4 10 -3 6 -8 10 -11 10 -2 0 -4
-4 -4 -10z"/>
<path d="M240 339 c0 -5 113 -9 250 -9 138 0 250 4 250 9 0 5 -112 8 -250 8
-137 0 -250 -4 -250 -8z"/>
<path d="M250 270 c0 -13 440 -13 460 0 10 6 -65 10 -222 10 -152 0 -238 -4
-238 -10z"/>
</g>
</svg>
